<svg xmlns="http://www.w3.org/2000/svg" version="1.1" xmlns:xlink="http://www.w3.org/1999/xlink" xmlns:svgjs="http://svgjs.dev/svgjs" width="1440" height="560" preserveAspectRatio="none" viewBox="0 0 1440 560"><g mask="url(&quot;#SvgjsMask1014&quot;)" fill="none"><rect width="1440" height="560" x="0" y="0" fill="rgba(230, 235, 227, 1)"></rect><path d="M-66.56 553.35L-66.56 553.35" stroke="rgba(41, 67, 40, 1)" stroke-width="1.5"></path><path d="M-66.56 553.35L-50.46 689.26" stroke="rgba(41, 67, 40, 1)" stroke-width="1.5"></path><path d="M-66.56 553.35L42.34 669.58" stroke="rgba(41, 67, 40, 1)" stroke-width="1.5"></path><path d="M-66.56 553.35L95.7 560.46" stroke="rgba(41, 67, 40, 1)" stroke-width="1.5"></path><path d="M-66.56 553.35L54.47 382.13" stroke="rgba(41, 67, 40, 1)" stroke-width="1.5"></path><path d="M-66.56 553.35L188.9 708.69" stroke="rgba(41, 67, 40, 1)" stroke-width="1.5"></path><path d="M-50.46 689.26L-50.46 689.26" stroke="rgba(41, 67, 40, 1)" stroke-width="1.5"></path><path d="M-50.46 689.26L42.34 669.58" stroke="rgba(41, 67, 40, 1)" stroke-width="1.5"></path><path d="M54.47 382.13L54.47 382.13" stroke="rgba(41, 67, 40, 1)" stroke-width="1.5"></path><path d="M54.47 382.13L95.7 560.46" stroke="rgba(41, 67, 40, 1)" stroke-width="1.5"></path><path d="M54.47 382.13L249.14 367.3" stroke="rgba(41, 67, 40, 1)" stroke-width="1.5"></path><path d="M54.47 382.13L231.14 516.79" stroke="rgba(41, 67, 40, 1)" stroke-width="1.5"></path><path d="M54.47 382.13L42.34 669.58" stroke="rgba(41, 67, 40, 1)" stroke-width="1.5"></path><path d="M95.7 560.46L95.7 560.46" stroke="rgba(41, 67, 40, 1)" stroke-width="1.5"></path><path d="M95.7 560.46L42.34 669.58" stroke="rgba(41, 67, 40, 1)" stroke-width="1.5"></path><path d="M95.7 560.46L231.14 516.79" stroke="rgba(41, 67, 40, 1)" stroke-width="1.5"></path><path d="M95.7 560.46L188.9 708.69" stroke="rgba(41, 67, 40, 1)" stroke-width="1.5"></path><path d="M42.34 669.58L42.34 669.58" stroke="rgba(41, 67, 40, 1)" stroke-width="1.5"></path><path d="M249.14 367.3L249.14 367.3" stroke="rgba(41, 67, 40, 1)" stroke-width="1.5"></path><path d="M249.14 367.3L360.04 406.27" stroke="rgba(41, 67, 40, 1)" stroke-width="1.5"></path><path d="M249.14 367.3L231.14 516.79" stroke="rgba(41, 67, 40, 1)" stroke-width="1.5"></path><path d="M249.14 367.3L388.88 562.39" stroke="rgba(41, 67, 40, 1)" stroke-width="1.5"></path><path d="M231.14 516.79L231.14 516.79" stroke="rgba(41, 67, 40, 1)" stroke-width="1.5"></path><path d="M231.14 516.79L388.88 562.39" stroke="rgba(41, 67, 40, 1)" stroke-width="1.5"></path><path d="M231.14 516.79L360.04 406.27" stroke="rgba(41, 67, 40, 1)" stroke-width="1.5"></path><path d="M231.14 516.79L188.9 708.69" stroke="rgba(41, 67, 40, 1)" stroke-width="1.5"></path><path d="M231.14 516.79L406.14 650.34" stroke="rgba(41, 67, 40, 1)" stroke-width="1.5"></path><path d="M188.9 708.69L188.9 708.69" stroke="rgba(41, 67, 40, 1)" stroke-width="1.5"></path><path d="M188.9 708.69L42.34 669.58" stroke="rgba(41, 67, 40, 1)" stroke-width="1.5"></path><path d="M188.9 708.69L406.14 650.34" stroke="rgba(41, 67, 40, 1)" stroke-width="1.5"></path><path d="M188.9 708.69L-50.46 689.26" stroke="rgba(41, 67, 40, 1)" stroke-width="1.5"></path><path d="M188.9 708.69L388.88 562.39" stroke="rgba(41, 67, 40, 1)" stroke-width="1.5"></path><path d="M360.04 406.27L360.04 406.27" stroke="rgba(41, 67, 40, 1)" stroke-width="1.5"></path><path d="M360.04 406.27L388.88 562.39" stroke="rgba(41, 67, 40, 1)" stroke-width="1.5"></path><path d="M388.88 562.39L388.88 562.39" stroke="rgba(41, 67, 40, 1)" stroke-width="1.5"></path><path d="M388.88 562.39L406.14 650.34" stroke="rgba(41, 67, 40, 1)" stroke-width="1.5"></path><path d="M406.14 650.34L406.14 650.34" stroke="rgba(41, 67, 40, 1)" stroke-width="1.5"></path><path d="M406.14 650.34L543.46 643.04" stroke="rgba(41, 67, 40, 1)" stroke-width="1.5"></path><path d="M406.14 650.34L553.61 537.28" stroke="rgba(41, 67, 40, 1)" stroke-width="1.5"></path><path d="M527.73 380.44L527.73 380.44" stroke="rgba(41, 67, 40, 1)" stroke-width="1.5"></path><path d="M527.73 380.44L669.65 344.72" stroke="rgba(41, 67, 40, 1)" stroke-width="1.5"></path><path d="M527.73 380.44L553.61 537.28" stroke="rgba(41, 67, 40, 1)" stroke-width="1.5"></path><path d="M527.73 380.44L360.04 406.27" stroke="rgba(41, 67, 40, 1)" stroke-width="1.5"></path><path d="M527.73 380.44L658.24 489.42" stroke="rgba(41, 67, 40, 1)" stroke-width="1.5"></path><path d="M527.73 380.44L658.45 258.93" stroke="rgba(41, 67, 40, 1)" stroke-width="1.5"></path><path d="M553.61 537.28L553.61 537.28" stroke="rgba(41, 67, 40, 1)" stroke-width="1.5"></path><path d="M553.61 537.28L543.46 643.04" stroke="rgba(41, 67, 40, 1)" stroke-width="1.5"></path><path d="M553.61 537.28L658.24 489.42" stroke="rgba(41, 67, 40, 1)" stroke-width="1.5"></path><path d="M553.61 537.28L388.88 562.39" stroke="rgba(41, 67, 40, 1)" stroke-width="1.5"></path><path d="M553.61 537.28L694.53 689.16" stroke="rgba(41, 67, 40, 1)" stroke-width="1.5"></path><path d="M543.46 643.04L543.46 643.04" stroke="rgba(41, 67, 40, 1)" stroke-width="1.5"></path><path d="M543.46 643.04L694.53 689.16" stroke="rgba(41, 67, 40, 1)" stroke-width="1.5"></path><path d="M543.46 643.04L388.88 562.39" stroke="rgba(41, 67, 40, 1)" stroke-width="1.5"></path><path d="M543.46 643.04L658.24 489.42" stroke="rgba(41, 67, 40, 1)" stroke-width="1.5"></path><path d="M658.45 258.93L658.45 258.93" stroke="rgba(41, 67, 40, 1)" stroke-width="1.5"></path><path d="M658.45 258.93L669.65 344.72" stroke="rgba(41, 67, 40, 1)" stroke-width="1.5"></path><path d="M658.45 258.93L813.15 187.99" stroke="rgba(41, 67, 40, 1)" stroke-width="1.5"></path><path d="M669.65 344.72L669.65 344.72" stroke="rgba(41, 67, 40, 1)" stroke-width="1.5"></path><path d="M669.65 344.72L658.24 489.42" stroke="rgba(41, 67, 40, 1)" stroke-width="1.5"></path><path d="M658.24 489.42L658.24 489.42" stroke="rgba(41, 67, 40, 1)" stroke-width="1.5"></path><path d="M658.24 489.42L805.49 538.06" stroke="rgba(41, 67, 40, 1)" stroke-width="1.5"></path><path d="M694.53 689.16L694.53 689.16" stroke="rgba(41, 67, 40, 1)" stroke-width="1.5"></path><path d="M694.53 689.16L853.22 659.62" stroke="rgba(41, 67, 40, 1)" stroke-width="1.5"></path><path d="M694.53 689.16L805.49 538.06" stroke="rgba(41, 67, 40, 1)" stroke-width="1.5"></path><path d="M694.53 689.16L658.24 489.42" stroke="rgba(41, 67, 40, 1)" stroke-width="1.5"></path><path d="M813.15 187.99L813.15 187.99" stroke="rgba(41, 67, 40, 1)" stroke-width="1.5"></path><path d="M813.15 187.99L978.25 191.16" stroke="rgba(41, 67, 40, 1)" stroke-width="1.5"></path><path d="M813.15 187.99L859.66 351.05" stroke="rgba(41, 67, 40, 1)" stroke-width="1.5"></path><path d="M813.15 187.99L965.69 52.17" stroke="rgba(41, 67, 40, 1)" stroke-width="1.5"></path><path d="M813.15 187.99L669.65 344.72" stroke="rgba(41, 67, 40, 1)" stroke-width="1.5"></path><path d="M859.66 351.05L859.66 351.05" stroke="rgba(41, 67, 40, 1)" stroke-width="1.5"></path><path d="M859.66 351.05L1009.63 401.94" stroke="rgba(41, 67, 40, 1)" stroke-width="1.5"></path><path d="M859.66 351.05L669.65 344.72" stroke="rgba(41, 67, 40, 1)" stroke-width="1.5"></path><path d="M859.66 351.05L805.49 538.06" stroke="rgba(41, 67, 40, 1)" stroke-width="1.5"></path><path d="M859.66 351.05L978.25 191.16" stroke="rgba(41, 67, 40, 1)" stroke-width="1.5"></path><path d="M859.66 351.05L995.1 506.96" stroke="rgba(41, 67, 40, 1)" stroke-width="1.5"></path><path d="M805.49 538.06L805.49 538.06" stroke="rgba(41, 67, 40, 1)" stroke-width="1.5"></path><path d="M805.49 538.06L853.22 659.62" stroke="rgba(41, 67, 40, 1)" stroke-width="1.5"></path><path d="M853.22 659.62L853.22 659.62" stroke="rgba(41, 67, 40, 1)" stroke-width="1.5"></path><path d="M853.22 659.62L1006.28 698.87" stroke="rgba(41, 67, 40, 1)" stroke-width="1.5"></path><path d="M959.82 -40.78L959.82 -40.78" stroke="rgba(41, 67, 40, 1)" stroke-width="1.5"></path><path d="M959.82 -40.78L965.69 52.17" stroke="rgba(41, 67, 40, 1)" stroke-width="1.5"></path><path d="M959.82 -40.78L1145.01 -54.35" stroke="rgba(41, 67, 40, 1)" stroke-width="1.5"></path><path d="M959.82 -40.78L1131.53 43.22" stroke="rgba(41, 67, 40, 1)" stroke-width="1.5"></path><path d="M959.82 -40.78L978.25 191.16" stroke="rgba(41, 67, 40, 1)" stroke-width="1.5"></path><path d="M965.69 52.17L965.69 52.17" stroke="rgba(41, 67, 40, 1)" stroke-width="1.5"></path><path d="M965.69 52.17L978.25 191.16" stroke="rgba(41, 67, 40, 1)" stroke-width="1.5"></path><path d="M965.69 52.17L1131.53 43.22" stroke="rgba(41, 67, 40, 1)" stroke-width="1.5"></path><path d="M978.25 191.16L978.25 191.16" stroke="rgba(41, 67, 40, 1)" stroke-width="1.5"></path><path d="M978.25 191.16L1161.43 238.24" stroke="rgba(41, 67, 40, 1)" stroke-width="1.5"></path><path d="M978.25 191.16L1131.53 43.22" stroke="rgba(41, 67, 40, 1)" stroke-width="1.5"></path><path d="M1009.63 401.94L1009.63 401.94" stroke="rgba(41, 67, 40, 1)" stroke-width="1.5"></path><path d="M1009.63 401.94L995.1 506.96" stroke="rgba(41, 67, 40, 1)" stroke-width="1.5"></path><path d="M995.1 506.96L995.1 506.96" stroke="rgba(41, 67, 40, 1)" stroke-width="1.5"></path><path d="M995.1 506.96L805.49 538.06" stroke="rgba(41, 67, 40, 1)" stroke-width="1.5"></path><path d="M995.1 506.96L1006.28 698.87" stroke="rgba(41, 67, 40, 1)" stroke-width="1.5"></path><path d="M1006.28 698.87L1006.28 698.87" stroke="rgba(41, 67, 40, 1)" stroke-width="1.5"></path><path d="M1006.28 698.87L1150.93 648.46" stroke="rgba(41, 67, 40, 1)" stroke-width="1.5"></path><path d="M1006.28 698.87L805.49 538.06" stroke="rgba(41, 67, 40, 1)" stroke-width="1.5"></path><path d="M1006.28 698.87L1009.63 401.94" stroke="rgba(41, 67, 40, 1)" stroke-width="1.5"></path><path d="M1006.28 698.87L1311.38 643.13" stroke="rgba(41, 67, 40, 1)" stroke-width="1.5"></path><path d="M1145.01 -54.35L1145.01 -54.35" stroke="rgba(41, 67, 40, 1)" stroke-width="1.5"></path><path d="M1145.01 -54.35L1131.53 43.22" stroke="rgba(41, 67, 40, 1)" stroke-width="1.5"></path><path d="M1145.01 -54.35L1260.08 50.17" stroke="rgba(41, 67, 40, 1)" stroke-width="1.5"></path><path d="M1145.01 -54.35L1302.17 -104.95" stroke="rgba(41, 67, 40, 1)" stroke-width="1.5"></path><path d="M1145.01 -54.35L965.69 52.17" stroke="rgba(41, 67, 40, 1)" stroke-width="1.5"></path><path d="M1131.53 43.22L1131.53 43.22" stroke="rgba(41, 67, 40, 1)" stroke-width="1.5"></path><path d="M1131.53 43.22L1260.08 50.17" stroke="rgba(41, 67, 40, 1)" stroke-width="1.5"></path><path d="M1161.43 238.24L1161.43 238.24" stroke="rgba(41, 67, 40, 1)" stroke-width="1.5"></path><path d="M1161.43 238.24L1279.34 221.15" stroke="rgba(41, 67, 40, 1)" stroke-width="1.5"></path><path d="M1161.43 238.24L1256.57 393.32" stroke="rgba(41, 67, 40, 1)" stroke-width="1.5"></path><path d="M1161.43 238.24L1131.53 43.22" stroke="rgba(41, 67, 40, 1)" stroke-width="1.5"></path><path d="M1150.93 648.46L1150.93 648.46" stroke="rgba(41, 67, 40, 1)" stroke-width="1.5"></path><path d="M1150.93 648.46L1311.38 643.13" stroke="rgba(41, 67, 40, 1)" stroke-width="1.5"></path><path d="M1150.93 648.46L1266.13 522.76" stroke="rgba(41, 67, 40, 1)" stroke-width="1.5"></path><path d="M1150.93 648.46L995.1 506.96" stroke="rgba(41, 67, 40, 1)" stroke-width="1.5"></path><path d="M1150.93 648.46L1256.57 393.32" stroke="rgba(41, 67, 40, 1)" stroke-width="1.5"></path><path d="M1150.93 648.46L1009.63 401.94" stroke="rgba(41, 67, 40, 1)" stroke-width="1.5"></path><path d="M1302.17 -104.95L1302.17 -104.95" stroke="rgba(41, 67, 40, 1)" stroke-width="1.5"></path><path d="M1302.17 -104.95L1260.08 50.17" stroke="rgba(41, 67, 40, 1)" stroke-width="1.5"></path><path d="M1302.17 -104.95L1409.93 89.36" stroke="rgba(41, 67, 40, 1)" stroke-width="1.5"></path><path d="M1260.08 50.17L1260.08 50.17" stroke="rgba(41, 67, 40, 1)" stroke-width="1.5"></path><path d="M1279.34 221.15L1279.34 221.15" stroke="rgba(41, 67, 40, 1)" stroke-width="1.5"></path><path d="M1279.34 221.15L1260.08 50.17" stroke="rgba(41, 67, 40, 1)" stroke-width="1.5"></path><path d="M1279.34 221.15L1256.57 393.32" stroke="rgba(41, 67, 40, 1)" stroke-width="1.5"></path><path d="M1279.34 221.15L1409.93 89.36" stroke="rgba(41, 67, 40, 1)" stroke-width="1.5"></path><path d="M1256.57 393.32L1256.57 393.32" stroke="rgba(41, 67, 40, 1)" stroke-width="1.5"></path><path d="M1256.57 393.32L1266.13 522.76" stroke="rgba(41, 67, 40, 1)" stroke-width="1.5"></path><path d="M1266.13 522.76L1266.13 522.76" stroke="rgba(41, 67, 40, 1)" stroke-width="1.5"></path><path d="M1266.13 522.76L1311.38 643.13" stroke="rgba(41, 67, 40, 1)" stroke-width="1.5"></path><path d="M1311.38 643.13L1311.38 643.13" stroke="rgba(41, 67, 40, 1)" stroke-width="1.5"></path><path d="M1311.38 643.13L1452.68 668.1" stroke="rgba(41, 67, 40, 1)" stroke-width="1.5"></path><path d="M1311.38 643.13L1457.09 543.71" stroke="rgba(41, 67, 40, 1)" stroke-width="1.5"></path><path d="M1311.38 643.13L1546.1 656.69" stroke="rgba(41, 67, 40, 1)" stroke-width="1.5"></path><path d="M1409.93 89.36L1409.93 89.36" stroke="rgba(41, 67, 40, 1)" stroke-width="1.5"></path><path d="M1409.93 89.36L1260.08 50.17" stroke="rgba(41, 67, 40, 1)" stroke-width="1.5"></path><path d="M1409.93 89.36L1559.44 260.31" stroke="rgba(41, 67, 40, 1)" stroke-width="1.5"></path><path d="M1409.93 89.36L1606.98 -52.03" stroke="rgba(41, 67, 40, 1)" stroke-width="1.5"></path><path d="M1409.93 89.36L1131.53 43.22" stroke="rgba(41, 67, 40, 1)" stroke-width="1.5"></path><path d="M1457.09 543.71L1457.09 543.71" stroke="rgba(41, 67, 40, 1)" stroke-width="1.5"></path><path d="M1457.09 543.71L1452.68 668.1" stroke="rgba(41, 67, 40, 1)" stroke-width="1.5"></path><path d="M1452.68 668.1L1452.68 668.1" stroke="rgba(41, 67, 40, 1)" stroke-width="1.5"></path><path d="M1452.68 668.1L1546.1 656.69" stroke="rgba(41, 67, 40, 1)" stroke-width="1.5"></path><path d="M1606.98 -52.03L1606.98 -52.03" stroke="rgba(41, 67, 40, 1)" stroke-width="1.5"></path><path d="M1606.98 -52.03L1302.17 -104.95" stroke="rgba(41, 67, 40, 1)" stroke-width="1.5"></path><path d="M1606.98 -52.03L1559.44 260.31" stroke="rgba(41, 67, 40, 1)" stroke-width="1.5"></path><path d="M1559.44 260.31L1559.44 260.31" stroke="rgba(41, 67, 40, 1)" stroke-width="1.5"></path><path d="M1559.44 260.31L1597.22 383.88" stroke="rgba(41, 67, 40, 1)" stroke-width="1.5"></path><path d="M1559.44 260.31L1279.34 221.15" stroke="rgba(41, 67, 40, 1)" stroke-width="1.5"></path><path d="M1559.44 260.31L1457.09 543.71" stroke="rgba(41, 67, 40, 1)" stroke-width="1.5"></path><path d="M1559.44 260.31L1256.57 393.32" stroke="rgba(41, 67, 40, 1)" stroke-width="1.5"></path><path d="M1597.22 383.88L1597.22 383.88" stroke="rgba(41, 67, 40, 1)" stroke-width="1.5"></path><path d="M1597.22 383.88L1457.09 543.71" stroke="rgba(41, 67, 40, 1)" stroke-width="1.5"></path><path d="M1597.22 383.88L1546.1 656.69" stroke="rgba(41, 67, 40, 1)" stroke-width="1.5"></path><path d="M1597.22 383.88L1452.68 668.1" stroke="rgba(41, 67, 40, 1)" stroke-width="1.5"></path><path d="M1597.22 383.88L1256.57 393.32" stroke="rgba(41, 67, 40, 1)" stroke-width="1.5"></path><path d="M1597.22 383.88L1409.93 89.36" stroke="rgba(41, 67, 40, 1)" stroke-width="1.5"></path><path d="M1546.1 656.69L1546.1 656.69" stroke="rgba(41, 67, 40, 1)" stroke-width="1.5"></path><path d="M1546.1 656.69L1457.09 543.71" stroke="rgba(41, 67, 40, 1)" stroke-width="1.5"></path><path d="M1546.1 656.69L1266.13 522.76" stroke="rgba(41, 67, 40, 1)" stroke-width="1.5"></path><circle r="5" cx="-66.56" cy="553.35" fill="rgba(41, 67, 40, 1)"></circle><circle r="5" cx="-50.46" cy="689.26" fill="rgba(41, 67, 40, 1)"></circle><circle r="5" cx="54.47" cy="382.13" fill="rgba(41, 67, 40, 1)"></circle><circle r="5" cx="95.7" cy="560.46" fill="rgba(41, 67, 40, 1)"></circle><circle r="5" cx="42.34" cy="669.58" fill="rgba(41, 67, 40, 1)"></circle><circle r="5" cx="249.14" cy="367.3" fill="rgba(41, 67, 40, 1)"></circle><circle r="5" cx="231.14" cy="516.79" fill="rgba(41, 67, 40, 1)"></circle><circle r="5" cx="188.9" cy="708.69" fill="rgba(41, 67, 40, 1)"></circle><circle r="5" cx="360.04" cy="406.27" fill="rgba(41, 67, 40, 1)"></circle><circle r="5" cx="388.88" cy="562.39" fill="rgba(41, 67, 40, 1)"></circle><circle r="5" cx="406.14" cy="650.34" fill="rgba(41, 67, 40, 1)"></circle><circle r="5" cx="527.73" cy="380.44" fill="rgba(41, 67, 40, 1)"></circle><circle r="5" cx="553.61" cy="537.28" fill="rgba(41, 67, 40, 1)"></circle><circle r="5" cx="543.46" cy="643.04" fill="rgba(41, 67, 40, 1)"></circle><circle r="5" cx="658.45" cy="258.93" fill="rgba(41, 67, 40, 1)"></circle><circle r="5" cx="669.65" cy="344.72" fill="rgba(41, 67, 40, 1)"></circle><circle r="5" cx="658.24" cy="489.42" fill="rgba(41, 67, 40, 1)"></circle><circle r="5" cx="694.53" cy="689.16" fill="rgba(41, 67, 40, 1)"></circle><circle r="5" cx="813.15" cy="187.99" fill="rgba(41, 67, 40, 1)"></circle><circle r="5" cx="859.66" cy="351.05" fill="rgba(41, 67, 40, 1)"></circle><circle r="5" cx="805.49" cy="538.06" fill="rgba(41, 67, 40, 1)"></circle><circle r="5" cx="853.22" cy="659.62" fill="rgba(41, 67, 40, 1)"></circle><circle r="5" cx="959.82" cy="-40.78" fill="rgba(41, 67, 40, 1)"></circle><circle r="5" cx="965.69" cy="52.17" fill="rgba(41, 67, 40, 1)"></circle><circle r="5" cx="978.25" cy="191.16" fill="rgba(41, 67, 40, 1)"></circle><circle r="5" cx="1009.63" cy="401.94" fill="rgba(41, 67, 40, 1)"></circle><circle r="5" cx="995.1" cy="506.96" fill="rgba(41, 67, 40, 1)"></circle><circle r="5" cx="1006.28" cy="698.87" fill="rgba(41, 67, 40, 1)"></circle><circle r="5" cx="1145.01" cy="-54.35" fill="rgba(41, 67, 40, 1)"></circle><circle r="5" cx="1131.53" cy="43.22" fill="rgba(41, 67, 40, 1)"></circle><circle r="5" cx="1161.43" cy="238.24" fill="rgba(41, 67, 40, 1)"></circle><circle r="5" cx="1150.93" cy="648.46" fill="rgba(41, 67, 40, 1)"></circle><circle r="5" cx="1302.17" cy="-104.95" fill="rgba(41, 67, 40, 1)"></circle><circle r="5" cx="1260.08" cy="50.17" fill="rgba(41, 67, 40, 1)"></circle><circle r="5" cx="1279.34" cy="221.15" fill="rgba(41, 67, 40, 1)"></circle><circle r="5" cx="1256.57" cy="393.32" fill="rgba(41, 67, 40, 1)"></circle><circle r="5" cx="1266.13" cy="522.76" fill="rgba(41, 67, 40, 1)"></circle><circle r="5" cx="1311.38" cy="643.13" fill="rgba(41, 67, 40, 1)"></circle><circle r="5" cx="1409.93" cy="89.36" fill="rgba(41, 67, 40, 1)"></circle><circle r="5" cx="1457.09" cy="543.71" fill="rgba(41, 67, 40, 1)"></circle><circle r="5" cx="1452.68" cy="668.1" fill="rgba(41, 67, 40, 1)"></circle><circle r="5" cx="1606.98" cy="-52.03" fill="rgba(41, 67, 40, 1)"></circle><circle r="5" cx="1559.44" cy="260.31" fill="rgba(41, 67, 40, 1)"></circle><circle r="5" cx="1597.22" cy="383.88" fill="rgba(41, 67, 40, 1)"></circle><circle r="5" cx="1546.1" cy="656.69" fill="rgba(41, 67, 40, 1)"></circle><path d="M855.93 398.45L855.93 398.45" stroke="hsl(24.600000000000023, 91.4%, 70.9%)" stroke-width="1.5"></path><path d="M855.93 398.45L964.92 366.83" stroke="hsl(24.600000000000023, 91.4%, 70.9%)" stroke-width="1.5"></path><path d="M855.93 398.45L825.13 544.69" stroke="hsl(24.600000000000023, 91.4%, 70.9%)" stroke-width="1.5"></path><path d="M855.93 398.45L997.05 520.75" stroke="hsl(24.600000000000023, 91.4%, 70.9%)" stroke-width="1.5"></path><path d="M855.93 398.45L685.84 523.4" stroke="hsl(24.600000000000023, 91.4%, 70.9%)" stroke-width="1.5"></path><path d="M855.93 398.45L852.45 654.78" stroke="hsl(24.600000000000023, 91.4%, 70.9%)" stroke-width="1.5"></path><path d="M964.92 366.83L964.92 366.83" stroke="hsl(24.600000000000023, 91.4%, 70.9%)" stroke-width="1.5"></path><path d="M964.92 366.83L997.05 520.75" stroke="hsl(24.600000000000023, 91.4%, 70.9%)" stroke-width="1.5"></path><path d="M964.92 366.83L1110.48 259.15" stroke="hsl(24.600000000000023, 91.4%, 70.9%)" stroke-width="1.5"></path><path d="M964.92 366.83L1151.78 355.3" stroke="hsl(24.600000000000023, 91.4%, 70.9%)" stroke-width="1.5"></path><path d="M964.92 366.83L1105.89 528.11" stroke="hsl(24.600000000000023, 91.4%, 70.9%)" stroke-width="1.5"></path><path d="M1288.83 -102.58L1288.83 -102.58" stroke="hsl(24.600000000000023, 91.4%, 70.9%)" stroke-width="1.5"></path><path d="M1288.83 -102.58L1414.08 -73.2" stroke="hsl(24.600000000000023, 91.4%, 70.9%)" stroke-width="1.5"></path><path d="M1288.83 -102.58L1158.92 -48.07" stroke="hsl(24.600000000000023, 91.4%, 70.9%)" stroke-width="1.5"></path><path d="M1288.83 -102.58L1295.35 40.23" stroke="hsl(24.600000000000023, 91.4%, 70.9%)" stroke-width="1.5"></path><path d="M1288.83 -102.58L1422.44 38.72" stroke="hsl(24.600000000000023, 91.4%, 70.9%)" stroke-width="1.5"></path><path d="M1288.83 -102.58L1551.53 -78.24" stroke="hsl(24.600000000000023, 91.4%, 70.9%)" stroke-width="1.5"></path><path d="M1288.83 -102.58L1393.3 204.57" stroke="hsl(24.600000000000023, 91.4%, 70.9%)" stroke-width="1.5"></path><path d="M1256.9 341.25L1256.9 341.25" stroke="hsl(24.600000000000023, 91.4%, 70.9%)" stroke-width="1.5"></path><path d="M1256.9 341.25L1151.78 355.3" stroke="hsl(24.600000000000023, 91.4%, 70.9%)" stroke-width="1.5"></path><path d="M1256.9 341.25L1413.27 348.59" stroke="hsl(24.600000000000023, 91.4%, 70.9%)" stroke-width="1.5"></path><path d="M1422.44 38.72L1422.44 38.72" stroke="hsl(24.600000000000023, 91.4%, 70.9%)" stroke-width="1.5"></path><path d="M1422.44 38.72L1414.08 -73.2" stroke="hsl(24.600000000000023, 91.4%, 70.9%)" stroke-width="1.5"></path><path d="M1422.44 38.72L1295.35 40.23" stroke="hsl(24.600000000000023, 91.4%, 70.9%)" stroke-width="1.5"></path><path d="M1422.44 38.72L1393.3 204.57" stroke="hsl(24.600000000000023, 91.4%, 70.9%)" stroke-width="1.5"></path><path d="M1422.44 38.72L1551.53 -78.24" stroke="hsl(24.600000000000023, 91.4%, 70.9%)" stroke-width="1.5"></path><path d="M1422.44 38.72L1581.45 206.52" stroke="hsl(24.600000000000023, 91.4%, 70.9%)" stroke-width="1.5"></path><path d="M1393.3 204.57L1393.3 204.57" stroke="hsl(24.600000000000023, 91.4%, 70.9%)" stroke-width="1.5"></path><path d="M1393.3 204.57L1413.27 348.59" stroke="hsl(24.600000000000023, 91.4%, 70.9%)" stroke-width="1.5"></path><path d="M1393.3 204.57L1581.45 206.52" stroke="hsl(24.600000000000023, 91.4%, 70.9%)" stroke-width="1.5"></path><path d="M1393.3 204.57L1295.35 40.23" stroke="hsl(24.600000000000023, 91.4%, 70.9%)" stroke-width="1.5"></path><path d="M1393.3 204.57L1256.9 341.25" stroke="hsl(24.600000000000023, 91.4%, 70.9%)" stroke-width="1.5"></path><path d="M1393.3 204.57L1574.34 339.63" stroke="hsl(24.600000000000023, 91.4%, 70.9%)" stroke-width="1.5"></path><path d="M1544.3 649.66L1544.3 649.66" stroke="hsl(24.600000000000023, 91.4%, 70.9%)" stroke-width="1.5"></path><path d="M1544.3 649.66L1429.95 696.38" stroke="hsl(24.600000000000023, 91.4%, 70.9%)" stroke-width="1.5"></path><path d="M1544.3 649.66L1540.44 516.17" stroke="hsl(24.600000000000023, 91.4%, 70.9%)" stroke-width="1.5"></path><path d="M1544.3 649.66L1412.92 548.55" stroke="hsl(24.600000000000023, 91.4%, 70.9%)" stroke-width="1.5"></path><path d="M-59.55 506.76L-59.55 506.76" stroke="hsl(24.600000000000023, 91.4%, 70.9%)" stroke-width="1.5"></path><path d="M-59.55 506.76L111.25 527.13" stroke="hsl(24.600000000000023, 91.4%, 70.9%)" stroke-width="1.5"></path><path d="M-59.55 506.76L-110.48 684.54" stroke="hsl(24.600000000000023, 91.4%, 70.9%)" stroke-width="1.5"></path><path d="M-59.55 506.76L101 676.13" stroke="hsl(24.600000000000023, 91.4%, 70.9%)" stroke-width="1.5"></path><path d="M-59.55 506.76L218.66 552.56" stroke="hsl(24.600000000000023, 91.4%, 70.9%)" stroke-width="1.5"></path><path d="M-110.48 684.54L-110.48 684.54" stroke="hsl(24.600000000000023, 91.4%, 70.9%)" stroke-width="1.5"></path><path d="M-110.48 684.54L101 676.13" stroke="hsl(24.600000000000023, 91.4%, 70.9%)" stroke-width="1.5"></path><path d="M-110.48 684.54L111.25 527.13" stroke="hsl(24.600000000000023, 91.4%, 70.9%)" stroke-width="1.5"></path><path d="M-110.48 684.54L215.07 658.19" stroke="hsl(24.600000000000023, 91.4%, 70.9%)" stroke-width="1.5"></path><path d="M-110.48 684.54L218.66 552.56" stroke="hsl(24.600000000000023, 91.4%, 70.9%)" stroke-width="1.5"></path><path d="M111.25 527.13L111.25 527.13" stroke="hsl(24.600000000000023, 91.4%, 70.9%)" stroke-width="1.5"></path><path d="M111.25 527.13L218.66 552.56" stroke="hsl(24.600000000000023, 91.4%, 70.9%)" stroke-width="1.5"></path><path d="M111.25 527.13L101 676.13" stroke="hsl(24.600000000000023, 91.4%, 70.9%)" stroke-width="1.5"></path><path d="M101 676.13L101 676.13" stroke="hsl(24.600000000000023, 91.4%, 70.9%)" stroke-width="1.5"></path><path d="M101 676.13L215.07 658.19" stroke="hsl(24.600000000000023, 91.4%, 70.9%)" stroke-width="1.5"></path><path d="M101 676.13L218.66 552.56" stroke="hsl(24.600000000000023, 91.4%, 70.9%)" stroke-width="1.5"></path><path d="M218.66 552.56L218.66 552.56" stroke="hsl(24.600000000000023, 91.4%, 70.9%)" stroke-width="1.5"></path><path d="M218.66 552.56L215.07 658.19" stroke="hsl(24.600000000000023, 91.4%, 70.9%)" stroke-width="1.5"></path><path d="M218.66 552.56L393.42 530.45" stroke="hsl(24.600000000000023, 91.4%, 70.9%)" stroke-width="1.5"></path><path d="M218.66 552.56L340.83 687.36" stroke="hsl(24.600000000000023, 91.4%, 70.9%)" stroke-width="1.5"></path><path d="M215.07 658.19L215.07 658.19" stroke="hsl(24.600000000000023, 91.4%, 70.9%)" stroke-width="1.5"></path><path d="M215.07 658.19L340.83 687.36" stroke="hsl(24.600000000000023, 91.4%, 70.9%)" stroke-width="1.5"></path><path d="M215.07 658.19L111.25 527.13" stroke="hsl(24.600000000000023, 91.4%, 70.9%)" stroke-width="1.5"></path><path d="M215.07 658.19L393.42 530.45" stroke="hsl(24.600000000000023, 91.4%, 70.9%)" stroke-width="1.5"></path><path d="M393.42 530.45L393.42 530.45" stroke="hsl(24.600000000000023, 91.4%, 70.9%)" stroke-width="1.5"></path><path d="M393.42 530.45L340.83 687.36" stroke="hsl(24.600000000000023, 91.4%, 70.9%)" stroke-width="1.5"></path><path d="M393.42 530.45L558.03 501.27" stroke="hsl(24.600000000000023, 91.4%, 70.9%)" stroke-width="1.5"></path><path d="M393.42 530.45L556.34 685.2" stroke="hsl(24.600000000000023, 91.4%, 70.9%)" stroke-width="1.5"></path><path d="M393.42 530.45L111.25 527.13" stroke="hsl(24.600000000000023, 91.4%, 70.9%)" stroke-width="1.5"></path><path d="M340.83 687.36L340.83 687.36" stroke="hsl(24.600000000000023, 91.4%, 70.9%)" stroke-width="1.5"></path><path d="M558.03 501.27L558.03 501.27" stroke="hsl(24.600000000000023, 91.4%, 70.9%)" stroke-width="1.5"></path><path d="M558.03 501.27L685.84 523.4" stroke="hsl(24.600000000000023, 91.4%, 70.9%)" stroke-width="1.5"></path><path d="M556.34 685.2L556.34 685.2" stroke="hsl(24.600000000000023, 91.4%, 70.9%)" stroke-width="1.5"></path><path d="M556.34 685.2L694.56 640.22" stroke="hsl(24.600000000000023, 91.4%, 70.9%)" stroke-width="1.5"></path><path d="M556.34 685.2L558.03 501.27" stroke="hsl(24.600000000000023, 91.4%, 70.9%)" stroke-width="1.5"></path><path d="M556.34 685.2L685.84 523.4" stroke="hsl(24.600000000000023, 91.4%, 70.9%)" stroke-width="1.5"></path><path d="M685.84 523.4L685.84 523.4" stroke="hsl(24.600000000000023, 91.4%, 70.9%)" stroke-width="1.5"></path><path d="M685.84 523.4L694.56 640.22" stroke="hsl(24.600000000000023, 91.4%, 70.9%)" stroke-width="1.5"></path><path d="M685.84 523.4L825.13 544.69" stroke="hsl(24.600000000000023, 91.4%, 70.9%)" stroke-width="1.5"></path><path d="M685.84 523.4L852.45 654.78" stroke="hsl(24.600000000000023, 91.4%, 70.9%)" stroke-width="1.5"></path><path d="M694.56 640.22L694.56 640.22" stroke="hsl(24.600000000000023, 91.4%, 70.9%)" stroke-width="1.5"></path><path d="M694.56 640.22L852.45 654.78" stroke="hsl(24.600000000000023, 91.4%, 70.9%)" stroke-width="1.5"></path><path d="M694.56 640.22L825.13 544.69" stroke="hsl(24.600000000000023, 91.4%, 70.9%)" stroke-width="1.5"></path><path d="M694.56 640.22L558.03 501.27" stroke="hsl(24.600000000000023, 91.4%, 70.9%)" stroke-width="1.5"></path><path d="M825.13 544.69L825.13 544.69" stroke="hsl(24.600000000000023, 91.4%, 70.9%)" stroke-width="1.5"></path><path d="M825.13 544.69L852.45 654.78" stroke="hsl(24.600000000000023, 91.4%, 70.9%)" stroke-width="1.5"></path><path d="M825.13 544.69L997.05 520.75" stroke="hsl(24.600000000000023, 91.4%, 70.9%)" stroke-width="1.5"></path><path d="M825.13 544.69L975.14 666.35" stroke="hsl(24.600000000000023, 91.4%, 70.9%)" stroke-width="1.5"></path><path d="M852.45 654.78L852.45 654.78" stroke="hsl(24.600000000000023, 91.4%, 70.9%)" stroke-width="1.5"></path><path d="M852.45 654.78L975.14 666.35" stroke="hsl(24.600000000000023, 91.4%, 70.9%)" stroke-width="1.5"></path><path d="M852.45 654.78L997.05 520.75" stroke="hsl(24.600000000000023, 91.4%, 70.9%)" stroke-width="1.5"></path><path d="M997.05 520.75L997.05 520.75" stroke="hsl(24.600000000000023, 91.4%, 70.9%)" stroke-width="1.5"></path><path d="M997.05 520.75L1105.89 528.11" stroke="hsl(24.600000000000023, 91.4%, 70.9%)" stroke-width="1.5"></path><path d="M997.05 520.75L975.14 666.35" stroke="hsl(24.600000000000023, 91.4%, 70.9%)" stroke-width="1.5"></path><path d="M975.14 666.35L975.14 666.35" stroke="hsl(24.600000000000023, 91.4%, 70.9%)" stroke-width="1.5"></path><path d="M975.14 666.35L1126.63 685.28" stroke="hsl(24.600000000000023, 91.4%, 70.9%)" stroke-width="1.5"></path><path d="M975.14 666.35L1105.89 528.11" stroke="hsl(24.600000000000023, 91.4%, 70.9%)" stroke-width="1.5"></path><path d="M975.14 666.35L1241.27 669.24" stroke="hsl(24.600000000000023, 91.4%, 70.9%)" stroke-width="1.5"></path><path d="M1158.92 -48.07L1158.92 -48.07" stroke="hsl(24.600000000000023, 91.4%, 70.9%)" stroke-width="1.5"></path><path d="M1158.92 -48.07L1295.35 40.23" stroke="hsl(24.600000000000023, 91.4%, 70.9%)" stroke-width="1.5"></path><path d="M1158.92 -48.07L1414.08 -73.2" stroke="hsl(24.600000000000023, 91.4%, 70.9%)" stroke-width="1.5"></path><path d="M1158.92 -48.07L1422.44 38.72" stroke="hsl(24.600000000000023, 91.4%, 70.9%)" stroke-width="1.5"></path><path d="M1158.92 -48.07L1110.48 259.15" stroke="hsl(24.600000000000023, 91.4%, 70.9%)" stroke-width="1.5"></path><path d="M1158.92 -48.07L1393.3 204.57" stroke="hsl(24.600000000000023, 91.4%, 70.9%)" stroke-width="1.5"></path><path d="M1110.48 259.15L1110.48 259.15" stroke="hsl(24.600000000000023, 91.4%, 70.9%)" stroke-width="1.5"></path><path d="M1110.48 259.15L1151.78 355.3" stroke="hsl(24.600000000000023, 91.4%, 70.9%)" stroke-width="1.5"></path><path d="M1151.78 355.3L1151.78 355.3" stroke="hsl(24.600000000000023, 91.4%, 70.9%)" stroke-width="1.5"></path><path d="M1151.78 355.3L1240.12 502.97" stroke="hsl(24.600000000000023, 91.4%, 70.9%)" stroke-width="1.5"></path><path d="M1151.78 355.3L1105.89 528.11" stroke="hsl(24.600000000000023, 91.4%, 70.9%)" stroke-width="1.5"></path><path d="M1105.89 528.11L1105.89 528.11" stroke="hsl(24.600000000000023, 91.4%, 70.9%)" stroke-width="1.5"></path><path d="M1105.89 528.11L1240.12 502.97" stroke="hsl(24.600000000000023, 91.4%, 70.9%)" stroke-width="1.5"></path><path d="M1105.89 528.11L1126.63 685.28" stroke="hsl(24.600000000000023, 91.4%, 70.9%)" stroke-width="1.5"></path><path d="M1126.63 685.28L1126.63 685.28" stroke="hsl(24.600000000000023, 91.4%, 70.9%)" stroke-width="1.5"></path><path d="M1126.63 685.28L1241.27 669.24" stroke="hsl(24.600000000000023, 91.4%, 70.9%)" stroke-width="1.5"></path><path d="M1295.35 40.23L1295.35 40.23" stroke="hsl(24.600000000000023, 91.4%, 70.9%)" stroke-width="1.5"></path><path d="M1240.12 502.97L1240.12 502.97" stroke="hsl(24.600000000000023, 91.4%, 70.9%)" stroke-width="1.5"></path><path d="M1240.12 502.97L1256.9 341.25" stroke="hsl(24.600000000000023, 91.4%, 70.9%)" stroke-width="1.5"></path><path d="M1240.12 502.97L1241.27 669.24" stroke="hsl(24.600000000000023, 91.4%, 70.9%)" stroke-width="1.5"></path><path d="M1241.27 669.24L1241.27 669.24" stroke="hsl(24.600000000000023, 91.4%, 70.9%)" stroke-width="1.5"></path><path d="M1241.27 669.24L1429.95 696.38" stroke="hsl(24.600000000000023, 91.4%, 70.9%)" stroke-width="1.5"></path><path d="M1241.27 669.24L1105.89 528.11" stroke="hsl(24.600000000000023, 91.4%, 70.9%)" stroke-width="1.5"></path><path d="M1414.08 -73.2L1414.08 -73.2" stroke="hsl(24.600000000000023, 91.4%, 70.9%)" stroke-width="1.5"></path><path d="M1414.08 -73.2L1551.53 -78.24" stroke="hsl(24.600000000000023, 91.4%, 70.9%)" stroke-width="1.5"></path><path d="M1414.08 -73.2L1295.35 40.23" stroke="hsl(24.600000000000023, 91.4%, 70.9%)" stroke-width="1.5"></path><path d="M1413.27 348.59L1413.27 348.59" stroke="hsl(24.600000000000023, 91.4%, 70.9%)" stroke-width="1.5"></path><path d="M1412.92 548.55L1412.92 548.55" stroke="hsl(24.600000000000023, 91.4%, 70.9%)" stroke-width="1.5"></path><path d="M1412.92 548.55L1540.44 516.17" stroke="hsl(24.600000000000023, 91.4%, 70.9%)" stroke-width="1.5"></path><path d="M1412.92 548.55L1429.95 696.38" stroke="hsl(24.600000000000023, 91.4%, 70.9%)" stroke-width="1.5"></path><path d="M1412.92 548.55L1240.12 502.97" stroke="hsl(24.600000000000023, 91.4%, 70.9%)" stroke-width="1.5"></path><path d="M1412.92 548.55L1413.27 348.59" stroke="hsl(24.600000000000023, 91.4%, 70.9%)" stroke-width="1.5"></path><path d="M1412.92 548.55L1241.27 669.24" stroke="hsl(24.600000000000023, 91.4%, 70.9%)" stroke-width="1.5"></path><path d="M1429.95 696.38L1429.95 696.38" stroke="hsl(24.600000000000023, 91.4%, 70.9%)" stroke-width="1.5"></path><path d="M1551.53 -78.24L1551.53 -78.24" stroke="hsl(24.600000000000023, 91.4%, 70.9%)" stroke-width="1.5"></path><path d="M1551.53 -78.24L1295.35 40.23" stroke="hsl(24.600000000000023, 91.4%, 70.9%)" stroke-width="1.5"></path><path d="M1551.53 -78.24L1581.45 206.52" stroke="hsl(24.600000000000023, 91.4%, 70.9%)" stroke-width="1.5"></path><path d="M1551.53 -78.24L1393.3 204.57" stroke="hsl(24.600000000000023, 91.4%, 70.9%)" stroke-width="1.5"></path><path d="M1581.45 206.52L1581.45 206.52" stroke="hsl(24.600000000000023, 91.4%, 70.9%)" stroke-width="1.5"></path><path d="M1581.45 206.52L1574.34 339.63" stroke="hsl(24.600000000000023, 91.4%, 70.9%)" stroke-width="1.5"></path><path d="M1581.45 206.52L1413.27 348.59" stroke="hsl(24.600000000000023, 91.4%, 70.9%)" stroke-width="1.5"></path><path d="M1574.34 339.63L1574.34 339.63" stroke="hsl(24.600000000000023, 91.4%, 70.9%)" stroke-width="1.5"></path><path d="M1540.44 516.17L1540.44 516.17" stroke="hsl(24.600000000000023, 91.4%, 70.9%)" stroke-width="1.5"></path><path d="M1540.44 516.17L1574.34 339.63" stroke="hsl(24.600000000000023, 91.4%, 70.9%)" stroke-width="1.5"></path><path d="M1540.44 516.17L1413.27 348.59" stroke="hsl(24.600000000000023, 91.4%, 70.9%)" stroke-width="1.5"></path><path d="M1540.44 516.17L1429.95 696.38" stroke="hsl(24.600000000000023, 91.4%, 70.9%)" stroke-width="1.5"></path><path d="M1540.44 516.17L1240.12 502.97" stroke="hsl(24.600000000000023, 91.4%, 70.9%)" stroke-width="1.5"></path><circle r="25" cx="855.93" cy="398.45" fill="url(&quot;#SvgjsRadialGradient1015&quot;)"></circle><circle r="25" cx="964.92" cy="366.83" fill="url(&quot;#SvgjsRadialGradient1015&quot;)"></circle><circle r="25" cx="1288.83" cy="-102.58" fill="url(&quot;#SvgjsRadialGradient1015&quot;)"></circle><circle r="25" cx="1256.9" cy="341.25" fill="url(&quot;#SvgjsRadialGradient1015&quot;)"></circle><circle r="25" cx="1422.44" cy="38.72" fill="url(&quot;#SvgjsRadialGradient1015&quot;)"></circle><circle r="25" cx="1393.3" cy="204.57" fill="url(&quot;#SvgjsRadialGradient1015&quot;)"></circle><circle r="25" cx="1544.3" cy="649.66" fill="url(&quot;#SvgjsRadialGradient1015&quot;)"></circle><circle r="5" cx="-59.55" cy="506.76" fill="#fabc90"></circle><circle r="5" cx="-110.48" cy="684.54" fill="#fabc90"></circle><circle r="5" cx="111.25" cy="527.13" fill="#fabc90"></circle><circle r="5" cx="101" cy="676.13" fill="#fabc90"></circle><circle r="5" cx="218.66" cy="552.56" fill="#fabc90"></circle><circle r="5" cx="215.07" cy="658.19" fill="#fabc90"></circle><circle r="5" cx="393.42" cy="530.45" fill="#fabc90"></circle><circle r="5" cx="340.83" cy="687.36" fill="#fabc90"></circle><circle r="5" cx="558.03" cy="501.27" fill="#fabc90"></circle><circle r="5" cx="556.34" cy="685.2" fill="#fabc90"></circle><circle r="5" cx="685.84" cy="523.4" fill="#fabc90"></circle><circle r="5" cx="694.56" cy="640.22" fill="#fabc90"></circle><circle r="5" cx="825.13" cy="544.69" fill="#fabc90"></circle><circle r="5" cx="852.45" cy="654.78" fill="#fabc90"></circle><circle r="5" cx="997.05" cy="520.75" fill="#fabc90"></circle><circle r="5" cx="975.14" cy="666.35" fill="#fabc90"></circle><circle r="5" cx="1158.92" cy="-48.07" fill="#fabc90"></circle><circle r="5" cx="1110.48" cy="259.15" fill="#fabc90"></circle><circle r="5" cx="1151.78" cy="355.3" fill="#fabc90"></circle><circle r="5" cx="1105.89" cy="528.11" fill="#fabc90"></circle><circle r="5" cx="1126.63" cy="685.28" fill="#fabc90"></circle><circle r="5" cx="1295.35" cy="40.23" fill="#fabc90"></circle><circle r="5" cx="1240.12" cy="502.97" fill="#fabc90"></circle><circle r="5" cx="1241.27" cy="669.24" fill="#fabc90"></circle><circle r="5" cx="1414.08" cy="-73.2" fill="#fabc90"></circle><circle r="5" cx="1413.27" cy="348.59" fill="#fabc90"></circle><circle r="5" cx="1412.92" cy="548.55" fill="#fabc90"></circle><circle r="5" cx="1429.95" cy="696.38" fill="#fabc90"></circle><circle r="5" cx="1551.53" cy="-78.24" fill="#fabc90"></circle><circle r="5" cx="1581.45" cy="206.52" fill="#fabc90"></circle><circle r="5" cx="1574.34" cy="339.63" fill="#fabc90"></circle><circle r="5" cx="1540.44" cy="516.17" fill="#fabc90"></circle></g><defs><mask id="SvgjsMask1014"><rect width="1440" height="560" fill="#ffffff"></rect></mask><radialGradient id="SvgjsRadialGradient1015"><stop stop-color="#ffffff" offset="0.1"></stop><stop stop-color="rgba(245, 120, 33, 1)" offset="0.2"></stop><stop stop-color="rgba(245, 120, 33, 0)" offset="1"></stop></radialGradient></defs></svg>